<svg xmlns="http://www.w3.org/2000/svg" width="16" height="17" viewBox="0 0 16 17" fill="none">
    <path
        d="M3.25 9.5H2.25C2.11739 9.5 1.99021 9.55268 1.89645 9.64645C1.80268 9.74021 1.75 9.86739 1.75 10V13.5C1.75 13.6326 1.80268 13.7598 1.89645 13.8536C1.99021 13.9473 2.11739 14 2.25 14H3.25C3.84674 14 4.41903 13.7629 4.84099 13.341C5.26295 12.919 5.5 12.3467 5.5 11.75C5.5 11.1533 5.26295 10.581 4.84099 10.159C4.41903 9.73705 3.84674 9.5 3.25 9.5ZM3.25 13H2.75V10.5H3.25C3.58152 10.5 3.89946 10.6317 4.13388 10.8661C4.3683 11.1005 4.5 11.4185 4.5 11.75C4.5 12.0815 4.3683 12.3995 4.13388 12.6339C3.89946 12.8683 3.58152 13 3.25 13ZM13.8456 12.6931C13.9414 12.7848 13.9969 12.9108 13.9998 13.0433C14.0027 13.1759 13.9529 13.3042 13.8612 13.4C13.6872 13.5874 13.4766 13.7373 13.2425 13.8405C13.0085 13.9436 12.7558 13.9979 12.5 14C11.3969 14 10.5 12.9906 10.5 11.75C10.5 10.5094 11.3969 9.5 12.5 9.5C12.7558 9.50207 13.0085 9.55636 13.2425 9.65953C13.4766 9.7627 13.6872 9.91259 13.8612 10.1C13.9509 10.1962 13.9991 10.3238 13.9953 10.4552C13.9916 10.5867 13.9362 10.7113 13.8412 10.8022C13.7462 10.8931 13.6192 10.9429 13.4877 10.9409C13.3562 10.9388 13.2309 10.8851 13.1388 10.7913C13.0576 10.7019 12.9591 10.6301 12.8493 10.58C12.7395 10.5299 12.6207 10.5027 12.5 10.5C11.9487 10.5 11.5 11.0625 11.5 11.75C11.5 12.4375 11.9487 13 12.5 13C12.6207 12.9973 12.7395 12.9701 12.8493 12.92C12.9591 12.8699 13.0576 12.7981 13.1388 12.7087C13.2304 12.613 13.3564 12.5575 13.489 12.5546C13.6215 12.5516 13.7498 12.6015 13.8456 12.6931ZM8 9.5C6.89687 9.5 6 10.5094 6 11.75C6 12.9906 6.89687 14 8 14C9.10313 14 10 12.9906 10 11.75C10 10.5094 9.10313 9.5 8 9.5ZM8 13C7.44875 13 7 12.4375 7 11.75C7 11.0625 7.44875 10.5 8 10.5C8.55125 10.5 9 11.0625 9 11.75C9 12.4375 8.55125 13 8 13ZM3 8C3.13261 8 3.25979 7.94732 3.35355 7.85355C3.44732 7.75979 3.5 7.63261 3.5 7.5V3H9V6C9 6.13261 9.05268 6.25979 9.14645 6.35355C9.24021 6.44732 9.36739 6.5 9.5 6.5H12.5V7.5C12.5 7.63261 12.5527 7.75979 12.6464 7.85355C12.7402 7.94732 12.8674 8 13 8C13.1326 8 13.2598 7.94732 13.3536 7.85355C13.4473 7.75979 13.5 7.63261 13.5 7.5V6C13.5001 5.93432 13.4872 5.86927 13.4621 5.80858C13.437 5.74788 13.4002 5.69272 13.3538 5.64625L9.85375 2.14625C9.80728 2.09983 9.75212 2.06303 9.69143 2.03793C9.63073 2.01284 9.56568 1.99995 9.5 2H3.5C3.23478 2 2.98043 2.10536 2.79289 2.29289C2.60536 2.48043 2.5 2.73478 2.5 3V7.5C2.5 7.63261 2.55268 7.75979 2.64645 7.85355C2.74021 7.94732 2.86739 8 3 8ZM10 3.70688L11.7931 5.5H10V3.70688Z"
        fill="#A3A3A3" />
</svg>