<svg xmlns="http://www.w3.org/2000/svg" width="12" height="12" viewBox="0 0 12 12" fill="none">
    <path
        d="M10.5 7.125V9.75C10.5 9.94891 10.421 10.1397 10.2803 10.2803C10.1397 10.421 9.94891 10.5 9.75 10.5H2.25C2.05109 10.5 1.86032 10.421 1.71967 10.2803C1.57902 10.1397 1.5 9.94891 1.5 9.75V7.125C1.5 7.02554 1.53951 6.93016 1.60984 6.85983C1.68016 6.78951 1.77554 6.75 1.875 6.75C1.97446 6.75 2.06984 6.78951 2.14016 6.85983C2.21049 6.93016 2.25 7.02554 2.25 7.125V9.75H9.75V7.125C9.75 7.02554 9.78951 6.93016 9.85983 6.85983C9.93016 6.78951 10.0255 6.75 10.125 6.75C10.2245 6.75 10.3198 6.78951 10.3902 6.85983C10.4605 6.93016 10.5 7.02554 10.5 7.125ZM5.73469 7.39031C5.76951 7.42518 5.81087 7.45284 5.8564 7.47171C5.90192 7.49058 5.95072 7.50029 6 7.50029C6.04928 7.50029 6.09808 7.49058 6.1436 7.47171C6.18913 7.45284 6.23049 7.42518 6.26531 7.39031L8.14031 5.51531C8.17515 5.48047 8.20279 5.43911 8.22165 5.39359C8.2405 5.34806 8.25021 5.29927 8.25021 5.25C8.25021 5.20073 8.2405 5.15194 8.22165 5.10641C8.20279 5.06089 8.17515 5.01953 8.14031 4.98469C8.10547 4.94985 8.06411 4.92221 8.01859 4.90335C7.97306 4.8845 7.92427 4.87479 7.875 4.87479C7.82573 4.87479 7.77694 4.8845 7.73141 4.90335C7.68589 4.92221 7.64453 4.94985 7.60969 4.98469L6.375 6.21984V1.875C6.375 1.77554 6.33549 1.68016 6.26517 1.60984C6.19484 1.53951 6.09946 1.5 6 1.5C5.90054 1.5 5.80516 1.53951 5.73484 1.60984C5.66451 1.68016 5.625 1.77554 5.625 1.875V6.21984L4.39031 4.98469C4.31995 4.91432 4.22451 4.87479 4.125 4.87479C4.02549 4.87479 3.93005 4.91432 3.85969 4.98469C3.78932 5.05505 3.74979 5.15049 3.74979 5.25C3.74979 5.34951 3.78932 5.44495 3.85969 5.51531L5.73469 7.39031Z"
        fill="#737373" />
</svg>