<svg xmlns="http://www.w3.org/2000/svg" width="16" height="17" viewBox="0 0 16 17" fill="none">
    <path
        d="M6.19125 8.53813C6.0999 8.50023 5.99936 8.49027 5.90235 8.50952C5.80534 8.52876 5.71621 8.57635 5.64625 8.64625L4.29313 10H3C2.86739 10 2.74021 10.0527 2.64645 10.1464C2.55268 10.2402 2.5 10.3674 2.5 10.5V13C2.5 13.1326 2.55268 13.2598 2.64645 13.3536C2.74021 13.4473 2.86739 13.5 3 13.5H4.29313L5.64625 14.8538C5.71618 14.9238 5.8053 14.9714 5.90235 14.9908C5.99939 15.0101 6.09998 15.0002 6.1914 14.9623C6.28281 14.9244 6.36092 14.8603 6.41586 14.778C6.4708 14.6957 6.50008 14.5989 6.5 14.5V9C6.49998 8.90111 6.47064 8.80445 6.41568 8.72223C6.36072 8.64002 6.28262 8.57595 6.19125 8.53813ZM5.5 13.2931L4.85375 12.6462C4.80728 12.5998 4.75212 12.563 4.69142 12.5379C4.63073 12.5128 4.56568 12.4999 4.5 12.5H3.5V11H4.5C4.56568 11.0001 4.63073 10.9872 4.69142 10.9621C4.75212 10.937 4.80728 10.9002 4.85375 10.8538L5.5 10.2069V13.2931ZM9.5 11.75C9.49949 12.191 9.38391 12.6242 9.16468 13.0069C8.94546 13.3896 8.63018 13.7084 8.25 13.9319C8.13615 13.9886 8.00498 13.9997 7.88319 13.9631C7.7614 13.9265 7.65813 13.8448 7.59442 13.7348C7.53071 13.6247 7.51133 13.4945 7.54023 13.3707C7.56914 13.2468 7.64415 13.1386 7.75 13.0681C7.97923 12.9328 8.1692 12.7401 8.30118 12.5089C8.43316 12.2778 8.50258 12.0162 8.50258 11.75C8.50258 11.4838 8.43316 11.2222 8.30118 10.9911C8.1692 10.7599 7.97923 10.5672 7.75 10.4319C7.64415 10.3614 7.56914 10.2532 7.54023 10.1293C7.51133 10.0055 7.53071 9.87529 7.59442 9.76522C7.65813 9.65515 7.7614 9.5735 7.88319 9.53689C8.00498 9.50027 8.13615 9.51144 8.25 9.56812C8.63018 9.79162 8.94546 10.1104 9.16468 10.4931C9.38391 10.8758 9.49949 11.309 9.5 11.75ZM13.3538 5.64625L9.85375 2.14625C9.80728 2.09983 9.75212 2.06303 9.69143 2.03793C9.63073 2.01284 9.56568 1.99995 9.5 2H3.5C3.23478 2 2.98043 2.10536 2.79289 2.29289C2.60536 2.48043 2.5 2.73478 2.5 3V8C2.5 8.13261 2.55268 8.25979 2.64645 8.35355C2.74021 8.44732 2.86739 8.5 3 8.5C3.13261 8.5 3.25979 8.44732 3.35355 8.35355C3.44732 8.25979 3.5 8.13261 3.5 8V3H9V6C9 6.13261 9.05268 6.25979 9.14645 6.35355C9.24021 6.44732 9.36739 6.5 9.5 6.5H12.5V14H10.5C10.3674 14 10.2402 14.0527 10.1464 14.1464C10.0527 14.2402 10 14.3674 10 14.5C10 14.6326 10.0527 14.7598 10.1464 14.8536C10.2402 14.9473 10.3674 15 10.5 15H12.5C12.7652 15 13.0196 14.8946 13.2071 14.7071C13.3946 14.5196 13.5 14.2652 13.5 14V6C13.5001 5.93432 13.4872 5.86927 13.4621 5.80858C13.437 5.74788 13.4002 5.69272 13.3538 5.64625ZM10 3.70688L11.7931 5.5H10V3.70688Z"
        fill="#A3A3A3" />
</svg>